<svg xmlns="http://www.w3.org/2000/svg" width="240" height="240" viewBox="0 0 240 240">
<g>
<path d="M 145.00 234.00 C135.27,236.33 114.56,237.39 105.86,236.00 C66.18,229.67 32.95,206.09 16.78,172.79 C6.87,152.37 4.60,142.79 4.54,121.00 C4.48,99.57 7.72,85.53 16.68,68.34 C32.14,38.70 55.71,19.42 89.00,9.19 C106.00,3.97 136.83,4.38 154.50,10.06 C184.11,19.58 207.55,39.02 222.52,66.48 C234.85,89.11 238.92,116.07 233.96,142.23 C225.21,188.35 191.84,222.78 145.00,234.00 ZM 119.00 188.16 L 119.00 219.27 L 128.75 218.74 C139.82,218.13 156.51,213.62 164.00,209.21 C166.48,207.75 170.16,205.73 172.18,204.71 C175.87,202.86 188.73,192.18 192.53,187.83 C197.74,181.83 203.00,175.15 203.00,174.52 C203.00,174.13 203.89,172.56 204.97,171.04 C206.05,169.52 206.65,167.99 206.30,167.64 C205.95,167.29 206.19,167.00 206.83,167.00 C207.48,167.00 208.00,166.31 208.00,165.48 C208.00,163.46 212.06,162.00 217.63,162.00 C221.73,162.00 222.11,161.80 221.82,159.75 C221.56,157.93 220.76,157.44 217.63,157.18 L 213.76 156.87 L 214.32 151.68 C214.63,148.83 215.64,144.02 216.56,141.00 C218.99,132.99 218.99,110.13 216.55,99.59 C207.93,62.24 180.60,33.92 144.38,24.78 C131.91,21.64 107.37,21.67 95.50,24.86 C83.42,28.09 64.84,37.72 56.70,44.96 C49.37,51.48 40.53,61.50 37.44,66.79 C35.77,69.66 35.71,70.21 37.01,71.04 C37.83,71.57 43.86,75.25 50.42,79.22 L 62.34 86.43 L 64.92 82.99 C73.33,71.80 85.23,62.84 98.00,58.12 C113.63,52.33 137.74,54.12 151.50,62.08 C164.85,69.80 172.70,78.23 179.33,92.00 C187.23,108.39 188.21,126.75 182.02,142.79 C180.28,147.31 178.44,151.00 177.93,151.00 C176.58,151.00 176.79,150.07 178.50,148.36 C180.52,146.34 180.40,141.71 178.25,139.06 C176.69,137.14 175.68,136.93 169.00,137.20 L 161.50 137.50 L 161.50 161.50 L 164.75 161.81 C167.99,162.13 168.00,162.11 168.00,157.56 C168.00,152.61 170.01,151.28 171.96,154.93 C174.33,159.34 173.24,161.58 165.25,168.70 C153.80,178.92 144.43,183.63 130.91,185.96 C127.38,186.57 123.26,187.31 121.75,187.61 ZM 73.75 162.43 C74.16,162.85 76.48,162.92 78.89,162.60 C81.30,162.27 85.58,162.00 88.40,162.00 C92.76,162.00 93.67,161.66 94.51,159.75 C95.24,158.10 96.49,157.42 99.25,157.19 C102.46,156.92 103.14,157.24 103.94,159.34 C104.85,161.73 105.14,161.79 116.03,161.88 C122.16,161.93 128.00,161.54 128.99,161.01 C131.85,159.48 133.08,154.71 131.44,151.54 C130.55,149.83 130.26,147.35 130.64,144.62 C131.50,138.33 129.73,137.00 120.43,137.00 L 113.00 137.00 L 113.00 148.00 C113.00,154.05 112.59,159.00 112.09,159.00 C111.24,159.00 109.14,153.60 105.35,141.70 C103.83,136.93 103.79,136.90 99.82,137.20 L 95.83 137.50 L 92.10 147.00 C88.54,156.09 88.24,156.51 85.13,156.82 C80.09,157.31 78.84,155.61 79.07,148.57 C79.45,137.35 79.36,137.00 76.00,137.00 L 73.00 137.00 L 73.00 149.33 C73.00,156.12 73.34,162.01 73.75,162.43 ZM 27.00 162.12 C28.92,162.46 33.21,162.80 36.53,162.87 C42.06,162.99 42.77,162.75 45.22,159.97 C47.43,157.45 48.36,157.05 50.69,157.62 C52.24,158.00 54.49,159.37 55.70,160.66 C58.38,163.51 62.00,163.80 62.00,161.16 C62.00,159.22 60.76,155.07 56.71,143.50 C54.77,137.95 53.80,136.43 52.03,136.17 C48.69,135.67 45.00,136.85 45.00,138.42 C45.00,139.18 43.59,143.67 41.87,148.40 L 38.73 157.00 L 34.97 157.00 C30.32,157.00 30.00,156.26 30.00,145.48 C30.00,136.58 29.41,135.43 25.41,136.43 L 22.94 137.05 L 23.22 149.28 L 23.50 161.50 ZM 137.52 159.61 C140.75,162.84 150.39,163.05 154.29,159.98 C159.67,155.76 160.32,144.23 155.47,139.37 C153.49,137.40 152.07,137.00 147.06,137.00 C141.89,137.00 140.60,137.39 137.98,139.75 C132.91,144.32 132.67,154.76 137.52,159.61 ZM 143.61 112.42 C144.00,113.43 145.44,114.00 147.61,114.00 L 151.00 114.00 L 151.00 109.00 C151.00,104.14 151.08,104.00 153.93,104.00 C161.35,104.00 165.31,99.86 165.17,92.23 C165.10,88.44 164.56,87.05 162.48,85.25 C160.27,83.33 158.74,83.00 152.05,83.00 C145.83,83.00 144.09,83.33 143.61,84.58 C142.82,86.64 142.82,110.36 143.61,112.42 ZM 92.21 113.99 C96.66,115.01 103.86,113.70 105.23,111.62 C106.28,110.03 106.17,106.23 105.07,105.54 C104.56,105.23 102.53,105.73 100.56,106.67 C97.12,108.31 96.88,108.30 94.24,106.34 C88.42,102.02 89.02,93.21 95.34,90.17 C97.72,89.02 98.46,89.07 100.63,90.50 C103.81,92.58 106.00,91.80 106.00,88.59 C106.00,82.62 93.90,80.69 87.94,85.70 C78.18,93.92 80.82,111.38 92.21,113.99 ZM 121.65 113.25 C121.91,113.66 123.66,114.00 125.54,114.00 C129.22,114.00 129.67,113.24 130.23,106.00 C130.49,102.65 130.68,102.49 134.75,102.19 C138.70,101.91 139.00,101.68 139.00,99.00 C139.00,96.32 138.70,96.09 134.75,95.81 C130.76,95.52 130.50,95.31 130.50,92.50 C130.50,89.63 130.71,89.49 135.25,89.20 C139.77,88.91 140.00,88.75 140.00,85.95 L 140.00 83.00 L 122.29 83.00 L 121.74 97.75 C121.44,105.86 121.40,112.84 121.65,113.25 ZM 108.61 112.42 C108.99,113.42 110.43,114.00 112.50,114.00 C114.57,114.00 116.01,113.42 116.39,112.42 C117.18,110.36 117.18,86.64 116.39,84.58 C116.01,83.59 114.58,83.00 112.53,83.00 C109.41,83.00 109.24,83.20 108.64,87.64 C107.83,93.54 107.81,110.34 108.61,112.42 ZM 150.82 153.70 C148.98,157.55 144.72,158.03 142.50,154.64 C138.72,148.86 143.54,139.08 148.79,141.88 C151.49,143.33 152.63,149.92 150.82,153.70 ZM 156.80 93.91 C156.57,95.90 155.86,96.57 153.75,96.82 C151.20,97.11 151.00,96.87 151.00,93.54 C151.00,91.25 151.55,89.73 152.51,89.36 C154.79,88.48 157.14,90.99 156.80,93.91 ZM 125.50 154.50 C125.50,157.11 120.31,157.96 119.36,155.50 C118.51,153.29 120.25,151.76 123.13,152.17 C124.72,152.39 125.50,153.16 125.50,154.50 ZM 123.50 144.00 C123.50,146.85 120.34,148.06 119.39,145.57 C118.48,143.20 119.77,140.81 121.75,141.19 C122.85,141.40 123.50,142.44 123.50,144.00 ZM 172.82 144.24 C172.27,148.07 168.00,147.71 168.00,143.83 C168.00,142.53 168.74,142.00 170.57,142.00 C172.66,142.00 173.08,142.42 172.82,144.24 ZM 100.93 150.25 C100.97,151.36 100.26,152.00 99.00,152.00 C96.71,152.00 96.56,151.24 98.11,147.32 C99.14,144.70 99.28,144.64 100.04,146.50 C100.49,147.60 100.89,149.29 100.93,150.25 ZM 52.00 150.93 C52.00,151.52 51.10,152.00 50.00,152.00 C47.91,152.00 47.62,150.83 48.91,147.52 C49.67,145.59 49.71,145.59 50.84,147.71 C51.48,148.90 52.00,150.35 52.00,150.93 Z" fill="rgb(8,16,21)"/>
<path d="M 119.00 188.16 L 121.75 187.61 C123.26,187.31 127.38,186.57 130.91,185.96 C144.43,183.63 153.80,178.92 165.25,168.70 C171.66,162.98 173.63,160.42 172.93,157.34 C172.96,157.40 172.98,157.45 173.00,157.50 L 174.93 162.00 L 180.99 162.00 C186.53,162.00 187.13,161.79 188.00,159.50 C188.80,157.40 189.60,157.00 193.00,157.00 C196.40,157.00 197.20,157.40 198.00,159.50 C198.72,161.41 199.67,162.00 201.98,162.00 C203.93,162.00 205.00,161.50 205.00,160.57 C205.00,157.97 197.15,137.71 195.81,136.86 C195.09,136.40 193.90,136.24 193.17,136.51 C192.44,136.78 191.25,137.00 190.53,137.00 C189.81,137.00 188.92,138.24 188.55,139.75 C187.99,142.08 185.13,149.95 182.14,157.42 C181.47,159.08 181.00,158.70 178.78,154.72 C176.71,151.03 176.45,149.87 177.47,149.02 C179.57,147.28 180.14,142.31 178.64,139.60 C180.40,142.29 180.39,146.47 178.50,148.36 C176.79,150.07 176.58,151.00 177.93,151.00 C178.44,151.00 180.28,147.31 182.02,142.79 C188.21,126.75 187.23,108.39 179.33,92.00 C176.30,85.72 173.02,80.54 169.08,76.04 C172.82,79.99 176.00,83.97 176.00,85.09 C176.00,85.59 176.39,86.00 176.86,86.00 C178.01,86.00 202.77,71.18 203.45,70.09 C203.73,69.62 202.85,67.59 201.49,65.57 C200.43,64.01 199.52,62.40 199.16,61.49 C207.30,72.51 213.28,85.40 216.55,99.59 C218.99,110.13 218.99,132.99 216.56,141.00 C215.64,144.02 214.63,148.83 214.32,151.68 L 213.80 156.54 L 213.50 156.50 L 212.93 137.00 L 207.00 137.00 L 207.00 148.83 C207.00,155.34 207.30,160.97 207.67,161.33 C208.03,161.70 211.44,162.00 215.24,162.00 C220.66,162.00 221.82,161.93 221.89,160.70 C221.85,161.87 220.98,162.00 217.63,162.00 C212.06,162.00 208.00,163.46 208.00,165.48 C208.00,166.31 207.48,167.00 206.83,167.00 C206.19,167.00 205.95,167.29 206.30,167.64 C206.65,167.99 206.05,169.52 204.97,171.04 C203.89,172.56 203.00,174.13 203.00,174.52 C203.00,175.15 197.74,181.83 192.53,187.83 C188.73,192.18 175.87,202.86 172.18,204.71 C170.16,205.73 166.48,207.75 164.00,209.21 C156.51,213.62 139.82,218.13 128.75,218.74 L 119.00 219.27 ZM 194.61 148.82 C195.18,151.64 194.99,152.00 193.00,152.00 C191.01,152.00 190.82,151.64 191.39,148.82 C192.06,145.45 192.69,144.36 193.49,145.16 C193.76,145.43 194.27,147.08 194.61,148.82 ZM 113.67 161.33 C113.93,161.60 114.94,161.78 116.32,161.88 C116.22,161.88 116.12,161.88 116.03,161.88 C113.37,161.86 111.35,161.84 109.79,161.79 C111.57,161.19 111.25,159.09 109.10,152.90 C110.62,157.05 111.58,159.00 112.09,159.00 C112.59,159.00 113.00,154.05 113.00,148.00 L 113.00 148.83 C113.00,155.34 113.30,160.97 113.67,161.33 ZM 172.69 36.87 C164.13,31.65 153.48,27.08 144.38,24.78 C154.60,27.36 164.11,31.47 172.69,36.87 ZM 192.16 53.03 C187.90,48.84 182.51,43.97 178.60,40.90 C183.49,44.51 188.03,48.57 192.16,53.03 ZM 108.94 55.44 C114.97,54.48 121.22,54.34 127.57,55.06 C133.50,55.74 138.37,56.72 142.90,58.30 C132.69,54.91 120.01,53.86 108.94,55.44 ZM 76.59 70.70 C82.31,65.63 88.78,61.70 95.77,58.99 C88.94,61.80 82.41,65.81 76.59,70.70 ZM 55.33 82.19 C59.19,84.46 61.94,86.00 62.20,86.00 C62.39,86.00 62.86,85.59 63.47,84.92 L 62.34 86.43 ZM 39.09 64.26 C43.02,58.71 50.41,50.55 56.70,44.96 C50.38,50.58 43.14,58.70 39.09,64.26 ZM 169.24 153.03 C168.50,153.53 168.01,155.07 168.00,157.50 C168.00,154.43 168.32,153.22 169.24,153.03 ZM 162.74 161.62 L 161.50 161.50 L 161.50 160.79 C161.72,161.11 162.17,161.41 162.74,161.62 ZM 166.60 161.92 C167.93,161.70 168.00,160.83 168.00,157.56 C168.00,160.99 167.99,161.84 166.60,161.92 ZM 161.50 137.87 L 161.50 137.50 L 169.00 137.20 C170.65,137.13 171.96,137.10 173.01,137.11 C172.00,137.11 170.76,137.15 169.21,137.21 L 161.51 137.50 ZM 40.99 73.49 C38.86,72.19 37.39,71.29 37.01,71.04 C36.83,70.93 36.68,70.82 36.55,70.71 C37.32,71.21 38.90,72.20 40.99,73.49 ZM 106.07 143.94 C105.79,143.10 105.54,142.33 105.34,141.70 C104.54,139.18 104.16,137.98 103.38,137.45 C104.16,137.98 104.55,139.18 105.35,141.70 C105.60,142.47 105.84,143.22 106.07,143.94 ZM 220.89 157.93 C221.45,158.32 221.70,158.88 221.82,159.75 C221.70,158.91 221.45,158.34 220.89,157.93 ZM 104.05 159.62 C104.15,159.88 104.27,160.12 104.38,160.34 C104.26,160.13 104.15,159.89 104.05,159.62 Z" fill="rgb(153,33,64)"/>
<path d="M 172.69 36.87 C174.72,38.14 176.69,39.49 178.60,40.90 C182.51,43.97 187.90,48.84 192.16,53.03 C194.64,55.70 196.98,58.53 199.16,61.49 C199.52,62.40 200.43,64.01 201.49,65.57 C202.85,67.59 203.73,69.62 203.45,70.09 C202.77,71.18 178.01,86.00 176.86,86.00 C176.39,86.00 176.00,85.59 176.00,85.09 C176.00,83.97 172.82,79.99 169.08,76.04 C164.39,70.68 158.76,66.27 151.50,62.08 C148.95,60.60 146.04,59.34 142.90,58.30 C138.37,56.72 133.50,55.74 127.57,55.06 C121.22,54.34 114.97,54.48 108.94,55.44 C105.03,56.00 101.32,56.89 98.00,58.12 C97.25,58.40 96.51,58.69 95.77,58.99 C88.78,61.70 82.31,65.63 76.59,70.70 C72.25,74.35 68.30,78.49 64.92,82.99 L 63.47 84.92 C62.86,85.59 62.39,86.00 62.20,86.00 C61.94,86.00 59.19,84.46 55.33,82.19 L 50.42 79.22 C46.88,77.07 43.48,75.01 40.99,73.49 C38.90,72.20 37.32,71.21 36.55,70.71 C35.76,70.01 36.00,69.27 37.44,66.79 C37.88,66.04 38.44,65.19 39.09,64.26 C43.14,58.70 50.38,50.58 56.70,44.96 C64.84,37.72 83.42,28.09 95.50,24.86 C107.37,21.67 131.91,21.64 144.38,24.78 C153.48,27.08 164.13,31.65 172.69,36.87 Z" fill="rgb(233,184,37)"/>
<path d="M 0.00 120.00 L 0.00 0.00 L 120.00 0.00 L 240.00 0.00 L 240.00 120.00 L 240.00 240.00 L 120.00 240.00 L 0.00 240.00 L 0.00 120.00 ZM 145.00 234.00 C191.84,222.78 225.21,188.35 233.96,142.23 C238.92,116.07 234.85,89.11 222.52,66.48 C207.55,39.02 184.11,19.58 154.50,10.06 C136.83,4.38 106.00,3.97 89.00,9.19 C55.71,19.42 32.14,38.70 16.68,68.34 C7.72,85.53 4.48,99.57 4.54,121.00 C4.60,142.79 6.87,152.37 16.78,172.79 C32.95,206.09 66.18,229.67 105.86,236.00 C114.56,237.39 135.27,236.33 145.00,234.00 ZM 27.00 162.12 L 23.50 161.50 L 23.22 149.28 L 22.94 137.05 L 25.41 136.43 C29.41,135.43 30.00,136.58 30.00,145.48 C30.00,156.26 30.32,157.00 34.97,157.00 L 38.73 157.00 L 41.87 148.40 C43.59,143.67 45.00,139.18 45.00,138.42 C45.00,136.85 48.69,135.67 52.03,136.17 C53.80,136.43 54.77,137.95 56.71,143.50 C60.76,155.07 62.00,159.22 62.00,161.16 C62.00,163.80 58.38,163.51 55.70,160.66 C54.49,159.37 52.24,158.00 50.69,157.62 C48.36,157.05 47.43,157.45 45.22,159.97 C42.77,162.75 42.06,162.99 36.53,162.87 C33.21,162.80 28.92,162.46 27.00,162.12 ZM 52.00 150.93 C52.00,150.35 51.48,148.90 50.84,147.71 C49.71,145.59 49.67,145.59 48.91,147.52 C47.62,150.83 47.91,152.00 50.00,152.00 C51.10,152.00 52.00,151.52 52.00,150.93 ZM 73.75 162.43 C73.34,162.01 73.00,156.12 73.00,149.33 L 73.00 137.00 L 76.00 137.00 C79.36,137.00 79.45,137.35 79.07,148.57 C78.84,155.61 80.09,157.31 85.13,156.82 C88.24,156.51 88.54,156.09 92.10,147.00 L 95.83 137.50 L 99.82 137.20 C103.79,136.90 103.83,136.93 105.34,141.70 C106.18,144.34 107.80,149.16 108.93,152.41 C111.82,160.64 111.68,162.00 107.98,162.00 C105.65,162.00 104.73,161.41 103.98,159.44 C103.14,157.23 102.49,156.92 99.25,157.19 C96.49,157.42 95.24,158.10 94.51,159.75 C93.67,161.66 92.76,162.00 88.40,162.00 C85.58,162.00 81.30,162.27 78.89,162.60 C76.48,162.92 74.16,162.85 73.75,162.43 ZM 100.93 150.25 C100.89,149.29 100.49,147.60 100.04,146.50 C99.28,144.64 99.14,144.70 98.11,147.32 C96.56,151.24 96.71,152.00 99.00,152.00 C100.26,152.00 100.97,151.36 100.93,150.25 ZM 113.67 161.33 C113.30,160.97 113.00,155.34 113.00,148.83 L 113.00 137.00 L 120.43 137.00 C129.73,137.00 131.50,138.33 130.64,144.62 C130.26,147.35 130.55,149.83 131.44,151.54 C133.09,154.72 131.84,159.48 128.96,161.02 C126.91,162.12 114.70,162.37 113.67,161.33 ZM 125.50 154.50 C125.50,153.16 124.72,152.39 123.13,152.17 C120.25,151.76 118.51,153.29 119.36,155.50 C120.31,157.96 125.50,157.11 125.50,154.50 ZM 123.50 144.00 C123.50,142.44 122.85,141.40 121.75,141.19 C119.77,140.81 118.48,143.20 119.39,145.57 C120.34,148.06 123.50,146.85 123.50,144.00 ZM 137.52 159.61 C132.67,154.76 132.91,144.32 137.98,139.75 C140.60,137.39 141.89,137.00 147.06,137.00 C152.07,137.00 153.49,137.40 155.47,139.37 C160.32,144.23 159.67,155.76 154.29,159.98 C150.39,163.05 140.75,162.84 137.52,159.61 ZM 150.82 153.70 C152.63,149.92 151.49,143.33 148.79,141.88 C143.54,139.08 138.72,148.86 142.50,154.64 C144.72,158.03 148.98,157.55 150.82,153.70 ZM 161.39 160.59 C161.10,159.81 161.00,154.30 161.18,148.34 L 161.51 137.50 L 169.21 137.21 C176.36,136.94 177.01,137.08 178.46,139.30 C180.18,141.93 179.65,147.22 177.47,149.02 C176.45,149.87 176.71,151.03 178.78,154.72 C181.00,158.70 181.47,159.08 182.14,157.42 C185.13,149.95 187.99,142.08 188.55,139.75 C188.92,138.24 189.81,137.00 190.53,137.00 C191.25,137.00 192.44,136.78 193.17,136.51 C193.90,136.24 195.09,136.40 195.81,136.86 C197.15,137.71 205.00,157.97 205.00,160.57 C205.00,161.50 203.93,162.00 201.98,162.00 C199.67,162.00 198.72,161.41 198.00,159.50 C197.20,157.40 196.40,157.00 193.00,157.00 C189.60,157.00 188.80,157.40 188.00,159.50 C187.13,161.79 186.53,162.00 180.99,162.00 L 174.93 162.00 L 173.00 157.50 C171.91,154.96 170.40,153.00 169.54,153.00 C168.38,153.00 168.00,154.12 168.00,157.50 C168.00,161.84 167.89,162.00 164.97,162.00 C163.28,162.00 161.70,161.37 161.39,160.59 ZM 194.61 148.82 C194.27,147.08 193.76,145.43 193.49,145.16 C192.69,144.36 192.06,145.45 191.39,148.82 C190.82,151.64 191.01,152.00 193.00,152.00 C194.99,152.00 195.18,151.64 194.61,148.82 ZM 172.82 144.24 C173.08,142.42 172.66,142.00 170.57,142.00 C168.74,142.00 168.00,142.53 168.00,143.83 C168.00,147.71 172.27,148.07 172.82,144.24 ZM 207.67 161.33 C207.30,160.97 207.00,155.34 207.00,148.83 L 207.00 137.00 L 209.96 137.00 L 212.93 137.00 L 213.21 146.75 L 213.50 156.50 L 217.50 157.00 C220.70,157.40 221.56,157.95 221.82,159.75 C222.12,161.90 221.82,162.00 215.24,162.00 C211.44,162.00 208.03,161.70 207.67,161.33 ZM 92.21 113.99 C80.82,111.38 78.18,93.92 87.94,85.70 C93.90,80.69 106.00,82.62 106.00,88.59 C106.00,91.80 103.81,92.58 100.63,90.50 C98.46,89.07 97.72,89.02 95.34,90.17 C89.02,93.21 88.42,102.02 94.24,106.34 C96.88,108.30 97.12,108.31 100.56,106.67 C102.53,105.73 104.56,105.23 105.07,105.54 C106.17,106.23 106.28,110.03 105.23,111.62 C103.86,113.70 96.66,115.01 92.21,113.99 ZM 108.61 112.42 C107.81,110.34 107.83,93.54 108.64,87.64 C109.24,83.20 109.41,83.00 112.53,83.00 C114.58,83.00 116.01,83.59 116.39,84.58 C117.18,86.64 117.18,110.36 116.39,112.42 C116.01,113.42 114.57,114.00 112.50,114.00 C110.43,114.00 108.99,113.42 108.61,112.42 ZM 121.65 113.25 C121.40,112.84 121.44,105.86 121.74,97.75 L 122.29 83.00 L 131.15 83.00 L 140.00 83.00 L 140.00 85.95 C140.00,88.75 139.77,88.91 135.25,89.20 C130.71,89.49 130.50,89.63 130.50,92.50 C130.50,95.31 130.76,95.52 134.75,95.81 C138.70,96.09 139.00,96.32 139.00,99.00 C139.00,101.68 138.70,101.91 134.75,102.19 C130.68,102.49 130.49,102.65 130.23,106.00 C129.67,113.24 129.22,114.00 125.54,114.00 C123.66,114.00 121.91,113.66 121.65,113.25 ZM 143.61 112.42 C142.82,110.36 142.82,86.64 143.61,84.58 C144.09,83.33 145.83,83.00 152.05,83.00 C158.74,83.00 160.27,83.33 162.48,85.25 C164.56,87.05 165.10,88.44 165.17,92.23 C165.31,99.86 161.35,104.00 153.93,104.00 C151.08,104.00 151.00,104.14 151.00,109.00 L 151.00 114.00 L 147.61 114.00 C145.44,114.00 144.00,113.43 143.61,112.42 ZM 156.80 93.91 C157.14,90.99 154.79,88.48 152.51,89.36 C151.55,89.73 151.00,91.25 151.00,93.54 C151.00,96.87 151.20,97.11 153.75,96.82 C155.86,96.57 156.57,95.90 156.80,93.91 Z" fill="rgb(250,250,251)"/>
</g>
</svg>